<?xml version="1.0" standalone="no"?>
<!DOCTYPE svg PUBLIC "-//W3C//DTD SVG 20010904//EN"
 "http://www.w3.org/TR/2001/REC-SVG-20010904/DTD/svg10.dtd">
<svg version="1.0" xmlns="http://www.w3.org/2000/svg"
 width="235.000000pt" height="235.000000pt" viewBox="0 0 235.000000 235.000000"
 preserveAspectRatio="xMidYMid meet">
<metadata>
Created by potrace 1.11, written by Peter Selinger 2001-2013
</metadata>
<g transform="translate(0.000000,235.000000) scale(0.100000,-0.100000)"
fill="#000000" stroke="none">
<path d="M1000 2342 c0 -4 -15 -7 -32 -6 -18 1 -41 -2 -51 -8 -15 -8 -18 -7
-12 3 6 8 4 10 -6 3 -8 -4 -23 -9 -34 -10 -24 -2 -92 -12 -125 -20 -39 -8 -74
-16 -90 -19 -8 -2 -15 -4 -15 -5 0 -2 -35 -8 -62 -12 -6 -1 -12 -8 -12 -17 0
-23 -6 -49 -13 -57 -4 -3 -4 -12 -1 -20 3 -8 0 -14 -6 -14 -6 0 -11 -9 -11
-19 0 -11 -5 -23 -10 -26 -6 -4 -8 -11 -5 -16 4 -5 1 -9 -5 -9 -6 0 -8 -4 -5
-10 3 -5 1 -10 -5 -10 -6 0 -8 -4 -5 -10 3 -5 2 -10 -4 -10 -5 0 -12 -8 -15
-18 -3 -9 -26 -38 -50 -64 -25 -25 -42 -49 -38 -53 4 -4 2 -5 -3 -4 -15 5 -86
-46 -77 -55 4 -4 2 -7 -3 -5 -6 1 -23 -4 -40 -11 -16 -7 -33 -13 -37 -12 -5 1
-8 -3 -8 -9 0 -5 -4 -8 -9 -4 -5 3 -12 1 -16 -5 -4 -6 -11 -8 -16 -5 -5 4 -9
1 -9 -5 0 -6 -4 -9 -8 -6 -16 10 -34 -12 -38 -45 -3 -19 -7 -59 -11 -89 -7
-59 -8 -374 -2 -427 2 -17 7 -34 11 -38 3 -3 4 -20 1 -36 -2 -16 0 -29 4 -29
5 0 9 -8 10 -17 2 -42 8 -73 13 -73 3 0 6 -8 7 -17 2 -26 7 -46 16 -60 5 -7 6
-13 2 -13 -3 0 1 -13 10 -30 8 -16 16 -33 16 -37 1 -8 18 -50 42 -105 6 -16
16 -28 20 -28 5 0 6 -4 3 -9 -3 -5 8 -28 25 -51 17 -23 25 -39 17 -35 -7 5 -3
-3 10 -17 12 -13 22 -29 22 -35 0 -6 10 -18 22 -27 13 -9 16 -14 8 -11 -8 4
-2 -5 13 -19 15 -14 24 -26 20 -26 -4 0 3 -10 17 -21 14 -11 18 -17 10 -13
-10 5 -9 0 4 -14 21 -24 32 -29 20 -10 -4 7 -3 8 5 4 6 -4 9 -11 7 -15 -3 -4
11 -23 30 -42 19 -18 47 -46 61 -61 14 -16 33 -28 41 -28 9 0 12 -3 9 -6 -6
-7 41 -54 54 -54 3 0 20 -13 39 -30 18 -16 36 -27 40 -25 5 3 10 -2 13 -9 3
-8 16 -20 28 -26 17 -10 20 -9 14 2 -4 7 3 2 14 -12 11 -14 21 -21 21 -16 0 5
8 2 18 -6 16 -14 38 -24 55 -26 4 -1 19 -10 34 -21 14 -12 29 -18 34 -15 5 3
9 1 9 -3 0 -5 10 -9 22 -10 11 -1 24 -7 28 -14 4 -6 13 -8 19 -5 6 4 11 2 11
-5 0 -7 3 -9 7 -6 3 4 12 2 19 -3 6 -6 16 -10 20 -9 5 2 22 -4 38 -12 21 -10
30 -11 33 -2 2 6 13 9 23 6 12 -3 20 0 20 6 0 7 5 9 10 6 5 -3 16 -3 23 2 6 4
19 8 27 10 8 1 16 7 18 13 2 5 8 8 13 5 5 -3 19 0 31 7 13 7 26 11 31 10 4 -1
7 3 7 9 0 5 5 7 10 4 6 -3 10 -1 10 4 0 6 3 10 8 9 11 -2 45 13 65 30 9 8 17
11 17 7 0 -5 7 0 16 11 8 10 13 12 9 4 -4 -8 3 -4 15 10 12 14 19 19 15 13 -3
-7 14 -1 38 15 25 15 43 30 40 34 -2 5 3 8 11 8 8 0 20 8 25 18 6 9 11 13 11
8 0 -5 11 3 25 18 14 15 25 24 25 21 0 -3 16 10 37 30 20 19 41 35 46 35 6 0
8 3 4 6 -3 3 7 17 23 31 16 13 29 29 27 36 -1 6 5 11 13 12 8 1 14 6 12 13 -1
7 1 11 5 10 5 -2 10 2 13 7 2 6 15 20 29 33 13 12 20 22 16 22 -5 0 0 7 11 15
10 8 15 15 9 15 -5 0 1 7 13 16 12 8 20 20 17 25 -4 5 -1 9 5 9 6 0 9 4 6 9
-3 5 1 12 10 15 8 3 13 10 10 15 -3 5 1 12 10 15 8 3 12 10 9 16 -3 5 -1 10 5
10 6 0 8 5 5 10 -3 6 -2 10 3 10 8 0 16 16 20 43 1 4 8 15 17 23 8 9 13 20 10
25 -4 5 -1 9 4 9 6 0 10 3 9 8 -1 4 3 17 10 29 7 13 10 23 7 23 -3 0 2 11 11
25 9 14 13 25 9 25 -4 0 -2 7 5 15 7 8 9 15 5 15 -4 0 -2 7 5 15 7 8 10 15 6
15 -3 0 -1 12 5 27 6 16 13 37 15 48 2 11 6 31 10 45 3 14 8 43 11 65 9 70 10
80 17 96 8 18 2 312 -8 399 -3 30 -7 69 -8 85 -3 36 -23 59 -43 51 -8 -3 -15
-2 -15 2 0 4 -11 12 -25 19 -19 8 -23 8 -18 0 3 -7 -2 -5 -13 4 -22 18 -55 33
-67 30 -5 -1 -6 3 -3 8 5 8 -6 16 -26 20 -5 0 -21 15 -36 31 -16 16 -32 26
-36 22 -4 -4 -6 -2 -5 3 4 10 -16 37 -59 81 -13 13 -20 24 -17 24 3 0 -9 25
-26 55 -17 30 -28 55 -24 55 4 0 2 6 -4 13 -6 8 -8 17 -4 20 3 4 1 7 -5 7 -6
0 -9 8 -7 18 1 10 -3 29 -11 42 -7 14 -13 21 -14 16 0 -5 -6 -4 -12 1 -7 6
-21 11 -30 12 -10 1 -27 2 -38 3 -11 1 -20 6 -20 11 0 5 -9 7 -20 4 -11 -3
-22 -1 -25 3 -3 5 -13 9 -23 8 -9 0 -33 3 -52 7 -19 3 -55 8 -80 11 -25 3 -63
8 -85 11 -71 10 -375 14 -375 5z"/>
</g>
</svg>
